<?xml version="1.0" standalone="no"?>
<!DOCTYPE svg PUBLIC "-//W3C//DTD SVG 20010904//EN"
 "http://www.w3.org/TR/2001/REC-SVG-20010904/DTD/svg10.dtd">
<svg version="1.0" xmlns="http://www.w3.org/2000/svg"
 width="660.000000pt" height="471.000000pt" viewBox="0 0 660.000000 471.000000"
 preserveAspectRatio="xMidYMid meet">
<metadata>
Created by potrace 1.16, written by Peter Selinger 2001-2019
</metadata>
<g transform="translate(0.000000,471.000000) scale(0.100000,-0.100000)"
fill="#000000" stroke="none">
<path d="M2110 4043 l0 -168 -335 3 -335 3 0 -171 0 -170 -170 0 -170 0 0
-170 0 -170 -170 0 -170 0 0 -340 0 -340 170 0 170 0 0 -335 0 -335 170 0 170
0 0 -170 0 -170 170 0 170 0 0 170 0 170 165 0 165 0 2 -338 3 -337 167 -3
168 -2 2 -168 3 -167 168 -3 167 -2 0 -165 0 -165 510 0 510 0 0 165 0 165
165 0 165 0 0 170 0 170 170 0 170 0 0 340 0 340 170 0 c94 0 171 1 171 3 4 7
8 1315 4 1332 -4 19 -11 20 -175 17 l-170 -3 0 -674 0 -675 -170 0 -170 0 0
-340 0 -340 -165 0 -165 0 0 -170 0 -170 -510 0 -510 0 0 170 0 170 -170 0
-170 0 0 340 0 340 -170 0 -170 0 0 675 0 675 170 0 170 0 0 170 0 170 -165 0
-165 0 0 163 0 164 503 6 c641 9 1273 9 1600 0 l257 -6 0 -169 0 -168 340 0
341 0 -1 -147 c-1 -82 -1 -156 0 -165 0 -16 15 -18 165 -18 l165 0 0 -335 0
-335 -165 0 -165 0 -2 -317 c0 -175 -1 -327 -2 -338 -1 -19 6 -20 172 -23
l172 -2 0 335 0 335 168 2 167 3 3 338 2 337 -170 0 -170 0 0 170 0 170 -170
0 -170 0 0 170 0 170 -340 0 -340 0 0 165 0 165 -1185 0 -1185 0 0 -167z
m-213 -513 l213 0 0 -165 0 -165 -170 0 -170 0 0 -675 0 -675 -165 0 -165 0 0
340 0 340 -170 0 -170 0 0 335 0 335 170 0 170 0 0 172 0 171 122 -6 c66 -4
217 -7 335 -7z"/>
<path d="M3806 2863 c-3 -4 -6 -82 -6 -175 l0 -168 175 0 175 0 -2 173 -3 172
-166 2 c-92 1 -169 -1 -173 -4z"/>
<path d="M2452 2693 l3 -168 168 -3 167 -2 0 170 0 170 -170 0 -170 0 2 -167z"/>
<path d="M2790 1680 l0 -170 170 0 170 0 0 -170 0 -170 170 0 170 0 0 170 0
170 170 0 170 0 0 170 0 170 -510 0 -510 0 0 -170z"/>
<path d="M4820 1680 l0 -170 170 0 170 0 0 170 0 170 -170 0 -170 0 0 -170z"/>
</g>
</svg>
